<svg width="20" height="20" viewBox="0 0 20 20" fill="none" xmlns="http://www.w3.org/2000/svg">
<path d="M10 20C15.5228 20 20 15.5228 20 10C20 4.47715 15.5228 0 10 0C4.47715 0 0 4.47715 0 10C0 15.5228 4.47715 20 10 20Z" fill="#F0F0F0"/>
<path d="M2.06667 3.91666C1.27002 4.95213 0.684831 6.13421 0.344452 7.39556H5.54556L2.06667 3.91666Z" fill="#0052B4"/>
<path d="M19.6511 7.39556C19.3107 6.13422 18.7255 4.95215 17.9289 3.91666L14.45 7.39556H19.6511Z" fill="#0052B4"/>
<path d="M0.344452 12.6111C0.684858 13.8724 1.27004 15.0545 2.06667 16.09L5.54556 12.6111H0.344452Z" fill="#0052B4"/>
<path d="M16.0845 2.07222C15.049 1.27556 13.8669 0.690378 12.6056 0.349998V5.55111L16.0845 2.07222Z" fill="#0052B4"/>
<path d="M3.9111 17.9344C4.94659 18.7311 6.12866 19.3163 7.39 19.6567V14.4556L3.9111 17.9344Z" fill="#0052B4"/>
<path d="M7.39 0.349998C6.12866 0.690405 4.94659 1.27559 3.9111 2.07222L7.39 5.55111V0.349998Z" fill="#0052B4"/>
<path d="M12.6056 19.6567C13.8669 19.3162 15.049 18.731 16.0845 17.9344L12.6056 14.4556V19.6567Z" fill="#0052B4"/>
<path d="M14.45 12.6111L17.9289 16.09C18.7255 15.0545 19.3107 13.8724 19.6511 12.6111H14.45Z" fill="#0052B4"/>
<path d="M12.6055 12.6111L17.0689 17.0744C17.274 16.8692 17.47 16.6552 17.6567 16.4322L13.8366 12.6122H12.6066L12.6055 12.6111Z" fill="#D80027"/>
<path d="M7.39443 12.6111L2.92776 17.0733C3.13295 17.2785 3.34702 17.4745 3.56998 17.6611L7.39443 13.84V12.6111Z" fill="#D80027"/>
<path d="M7.38998 7.4L2.92888 2.93334C2.72369 3.13852 2.52776 3.35259 2.34109 3.57556L6.16109 7.4H7.38998Z" fill="#D80027"/>
<path d="M12.6055 7.39555L17.0667 2.93445C16.8615 2.72926 16.6474 2.53333 16.4244 2.34666L12.6045 6.16667L12.6055 7.39555Z" fill="#D80027"/>
</svg>
