<svg width="21" height="22" viewBox="0 0 21 22" fill="none" xmlns="http://www.w3.org/2000/svg">
<path d="M14.56 10.152H13.66V8.43767C13.66 7.75568 13.3755 7.10163 12.8692 6.6194C12.3628 6.13716 11.6761 5.86624 10.96 5.86624C10.2439 5.86624 9.55715 6.13716 9.0508 6.6194C8.54446 7.10163 8.25999 7.75568 8.25999 8.43767V10.152H7.35999C7.1213 10.152 6.89238 10.2423 6.7236 10.403C6.55481 10.5638 6.45999 10.7818 6.45999 11.0091V15.2948C6.45999 15.5221 6.55481 15.7402 6.7236 15.9009C6.89238 16.0616 7.1213 16.152 7.35999 16.152H14.56C14.7987 16.152 15.0276 16.0616 15.1964 15.9009C15.3652 15.7402 15.46 15.5221 15.46 15.2948V11.0091C15.46 10.7818 15.3652 10.5638 15.1964 10.403C15.0276 10.2423 14.7987 10.152 14.56 10.152ZM11.86 10.152H10.06V8.43767C10.06 8.21034 10.1548 7.99232 10.3236 7.83158C10.4924 7.67083 10.7213 7.58053 10.96 7.58053C11.1987 7.58053 11.4276 7.67083 11.5964 7.83158C11.7652 7.99232 11.86 8.21034 11.86 8.43767V10.152Z" fill="#121212"/>
</svg>
