<svg width="25" height="25" viewBox="0 0 25 25" fill="none" xmlns="http://www.w3.org/2000/svg">
<path d="M12.3884 0C5.54445 0 0 5.54955 0 12.3935C0 19.2374 5.54955 24.7819 12.3935 24.7819C19.2374 24.7819 24.7819 19.2323 24.7819 12.3884C24.7819 5.54955 19.2374 0 12.3884 0ZM9.49386 20.8325C6.43116 20.8325 3.94431 18.3456 3.94431 15.2829C3.94431 12.2202 6.43116 9.73337 9.49386 9.73337C12.5566 9.73337 15.0434 12.2202 15.0434 15.2829C15.0485 18.3456 12.5617 20.8325 9.49386 20.8325C9.49895 20.8325 9.49386 20.8325 9.49386 20.8325Z" fill="url(#paint0_linear_12_1619)"/>
<path d="M11.4406 5.03998C6.85924 5.03998 3.13916 8.75497 3.13916 13.3414C3.13916 15.5327 4.00548 17.6322 5.54957 19.1916C3.40415 17.0258 3.41434 13.5299 5.58015 11.3845C7.74595 9.23909 11.2418 9.24928 13.3872 11.4151C15.5326 13.5809 15.5225 17.0767 13.3566 19.2222C11.2061 21.3574 7.73576 21.3574 5.58015 19.2222C8.8263 22.4581 14.0803 22.4479 17.3162 19.2018C20.5522 15.9556 20.542 10.7016 17.2959 7.46568C15.7416 5.91139 13.6369 5.03998 11.4406 5.03998Z" fill="url(#paint1_linear_12_1619)"/>
<defs>
<linearGradient id="paint0_linear_12_1619" x1="4.99509" y1="5.0079" x2="20.8338" y2="20.8429" gradientUnits="userSpaceOnUse">
<stop stop-color="#FCEE21"/>
<stop offset="1" stop-color="#F9AC19"/>
</linearGradient>
<linearGradient id="paint1_linear_12_1619" x1="16.4295" y1="18.2973" x2="5.85626" y2="7.72401" gradientUnits="userSpaceOnUse">
<stop stop-color="#FCEE21"/>
<stop offset="1" stop-color="#F9AC19"/>
</linearGradient>
</defs>
</svg>
